<mxfile host="www.draw.io" modified="2019-11-15T09:04:31.910Z" agent="Mozilla/5.0 (Windows NT 10.0; Win64; x64) AppleWebKit/537.36 (KHTML, like Gecko) Chrome/78.0.3904.97 Safari/537.36" etag="cOEljR2hpJf-cIycqio_" version="12.2.6" type="github" pages="1">
  <diagram id="1e8uDeBkI9DT_MpabLZp" name="Page-1">
    <mxGraphModel dx="1024" dy="566" grid="1" gridSize="10" guides="1" tooltips="1" connect="1" arrows="1" fold="1" page="1" pageScale="1" pageWidth="850" pageHeight="1100" math="0" shadow="0">
      <root>
        <mxCell id="0"/>
        <mxCell id="1" parent="0"/>
        <mxCell id="smWVfWvgVCm8FguwIH-v-1" value="" style="rounded=0;whiteSpace=wrap;html=1;" vertex="1" parent="1">
          <mxGeometry x="30" y="40" width="760" height="480" as="geometry"/>
        </mxCell>
        <mxCell id="smWVfWvgVCm8FguwIH-v-2" value="Nickname" style="verticalLabelPosition=bottom;shadow=0;dashed=0;align=center;html=1;verticalAlign=top;strokeWidth=1;shape=mxgraph.mockup.containers.userMale;strokeColor=#666666;strokeColor2=#008cff;" vertex="1" parent="1">
          <mxGeometry x="65" y="80" width="100" height="100" as="geometry"/>
        </mxCell>
        <mxCell id="smWVfWvgVCm8FguwIH-v-3" value="Nickname" style="verticalLabelPosition=bottom;shadow=0;dashed=0;align=center;html=1;verticalAlign=top;strokeWidth=1;shape=mxgraph.mockup.containers.userFemale;strokeColor=#666666;strokeColor2=#008cff;" vertex="1" parent="1">
          <mxGeometry x="215" y="80" width="100" height="100" as="geometry"/>
        </mxCell>
        <mxCell id="smWVfWvgVCm8FguwIH-v-4" value="Nickname" style="verticalLabelPosition=bottom;shadow=0;dashed=0;align=center;html=1;verticalAlign=top;strokeWidth=1;shape=mxgraph.mockup.containers.userMale;strokeColor=#666666;strokeColor2=#008cff;" vertex="1" parent="1">
          <mxGeometry x="365" y="80" width="100" height="100" as="geometry"/>
        </mxCell>
        <mxCell id="smWVfWvgVCm8FguwIH-v-5" value="Nickname" style="verticalLabelPosition=bottom;shadow=0;dashed=0;align=center;html=1;verticalAlign=top;strokeWidth=1;shape=mxgraph.mockup.containers.userFemale;strokeColor=#666666;strokeColor2=#008cff;" vertex="1" parent="1">
          <mxGeometry x="515" y="80" width="100" height="100" as="geometry"/>
        </mxCell>
        <mxCell id="smWVfWvgVCm8FguwIH-v-7" value="Nickname" style="verticalLabelPosition=bottom;shadow=0;dashed=0;align=center;html=1;verticalAlign=top;strokeWidth=1;shape=mxgraph.mockup.containers.userMale;strokeColor=#666666;strokeColor2=#008cff;" vertex="1" parent="1">
          <mxGeometry x="65" y="220" width="100" height="100" as="geometry"/>
        </mxCell>
        <mxCell id="smWVfWvgVCm8FguwIH-v-8" value="Nickname" style="verticalLabelPosition=bottom;shadow=0;dashed=0;align=center;html=1;verticalAlign=top;strokeWidth=1;shape=mxgraph.mockup.containers.userFemale;strokeColor=#666666;strokeColor2=#008cff;" vertex="1" parent="1">
          <mxGeometry x="215" y="220" width="100" height="100" as="geometry"/>
        </mxCell>
        <mxCell id="smWVfWvgVCm8FguwIH-v-9" value="Nickname" style="verticalLabelPosition=bottom;shadow=0;dashed=0;align=center;html=1;verticalAlign=top;strokeWidth=1;shape=mxgraph.mockup.containers.userMale;strokeColor=#666666;strokeColor2=#008cff;" vertex="1" parent="1">
          <mxGeometry x="365" y="220" width="100" height="100" as="geometry"/>
        </mxCell>
        <mxCell id="smWVfWvgVCm8FguwIH-v-10" value="Nickname" style="verticalLabelPosition=bottom;shadow=0;dashed=0;align=center;html=1;verticalAlign=top;strokeWidth=1;shape=mxgraph.mockup.containers.userFemale;strokeColor=#666666;strokeColor2=#008cff;" vertex="1" parent="1">
          <mxGeometry x="515" y="220" width="100" height="100" as="geometry"/>
        </mxCell>
        <mxCell id="smWVfWvgVCm8FguwIH-v-11" value="Nickname" style="verticalLabelPosition=bottom;shadow=0;dashed=0;align=center;html=1;verticalAlign=top;strokeWidth=1;shape=mxgraph.mockup.containers.userMale;strokeColor=#666666;strokeColor2=#008cff;" vertex="1" parent="1">
          <mxGeometry x="65" y="360" width="100" height="100" as="geometry"/>
        </mxCell>
        <mxCell id="smWVfWvgVCm8FguwIH-v-12" value="Nickname" style="verticalLabelPosition=bottom;shadow=0;dashed=0;align=center;html=1;verticalAlign=top;strokeWidth=1;shape=mxgraph.mockup.containers.userFemale;strokeColor=#666666;strokeColor2=#008cff;" vertex="1" parent="1">
          <mxGeometry x="215" y="360" width="100" height="100" as="geometry"/>
        </mxCell>
        <mxCell id="smWVfWvgVCm8FguwIH-v-13" value="Nickname" style="verticalLabelPosition=bottom;shadow=0;dashed=0;align=center;html=1;verticalAlign=top;strokeWidth=1;shape=mxgraph.mockup.containers.userMale;strokeColor=#666666;strokeColor2=#008cff;" vertex="1" parent="1">
          <mxGeometry x="365" y="360" width="100" height="100" as="geometry"/>
        </mxCell>
        <mxCell id="smWVfWvgVCm8FguwIH-v-14" value="Nickname" style="verticalLabelPosition=bottom;shadow=0;dashed=0;align=center;html=1;verticalAlign=top;strokeWidth=1;shape=mxgraph.mockup.containers.userFemale;strokeColor=#666666;strokeColor2=#008cff;" vertex="1" parent="1">
          <mxGeometry x="515" y="360" width="100" height="100" as="geometry"/>
        </mxCell>
        <mxCell id="smWVfWvgVCm8FguwIH-v-15" value="Nickname" style="verticalLabelPosition=bottom;shadow=0;dashed=0;align=center;html=1;verticalAlign=top;strokeWidth=1;shape=mxgraph.mockup.containers.userFemale;strokeColor=#666666;strokeColor2=#008cff;" vertex="1" parent="1">
          <mxGeometry x="655" y="80" width="100" height="100" as="geometry"/>
        </mxCell>
        <mxCell id="smWVfWvgVCm8FguwIH-v-16" value="Nickname" style="verticalLabelPosition=bottom;shadow=0;dashed=0;align=center;html=1;verticalAlign=top;strokeWidth=1;shape=mxgraph.mockup.containers.userFemale;strokeColor=#666666;strokeColor2=#008cff;" vertex="1" parent="1">
          <mxGeometry x="655" y="220" width="100" height="100" as="geometry"/>
        </mxCell>
        <mxCell id="smWVfWvgVCm8FguwIH-v-17" value="Nickname" style="verticalLabelPosition=bottom;shadow=0;dashed=0;align=center;html=1;verticalAlign=top;strokeWidth=1;shape=mxgraph.mockup.containers.userFemale;strokeColor=#666666;strokeColor2=#008cff;" vertex="1" parent="1">
          <mxGeometry x="655" y="360" width="100" height="100" as="geometry"/>
        </mxCell>
      </root>
    </mxGraphModel>
  </diagram>
</mxfile>
